<?xml version="1.0" encoding="UTF-8"?>
<!DOCTYPE svg PUBLIC "-//W3C//DTD SVG 1.1//EN" "http://www.w3.org/Graphics/SVG/1.1/DTD/svg11.dtd">
<svg version="1.2" width="30.19mm" height="14.23mm" viewBox="9589 15199 3019 1423" preserveAspectRatio="xMidYMid" fill-rule="evenodd" stroke-width="28.222" stroke-linejoin="round" xmlns="http://www.w3.org/2000/svg" xmlns:ooo="http://xml.openoffice.org/svg/export" xmlns:xlink="http://www.w3.org/1999/xlink" xmlns:presentation="http://sun.com/xmlns/staroffice/presentation" xmlns:smil="http://www.w3.org/2001/SMIL20/" xmlns:anim="urn:oasis:names:tc:opendocument:xmlns:animation:1.0" xmlns:svg="urn:oasis:names:tc:opendocument:xmlns:svg-compatible:1.0" xml:space="preserve">
 <defs class="EmbeddedBulletChars">
  <g id="bullet-char-template-57356" transform="scale(0.00048828125,-0.00048828125)">
   <path d="M 580,1141 L 1163,571 580,0 -4,571 580,1141 Z"/>
  </g>
  <g id="bullet-char-template-57354" transform="scale(0.00048828125,-0.00048828125)">
   <path d="M 8,1128 L 1137,1128 1137,0 8,0 8,1128 Z"/>
  </g>
  <g id="bullet-char-template-10146" transform="scale(0.00048828125,-0.00048828125)">
   <path d="M 174,0 L 602,739 174,1481 1456,739 174,0 Z M 1358,739 L 309,1346 659,739 1358,739 Z"/>
  </g>
  <g id="bullet-char-template-10132" transform="scale(0.00048828125,-0.00048828125)">
   <path d="M 2015,739 L 1276,0 717,0 1260,543 174,543 174,936 1260,936 717,1481 1274,1481 2015,739 Z"/>
  </g>
  <g id="bullet-char-template-10007" transform="scale(0.00048828125,-0.00048828125)">
   <path d="M 0,-2 C -7,14 -16,27 -25,37 L 356,567 C 262,823 215,952 215,954 215,979 228,992 255,992 264,992 276,990 289,987 310,991 331,999 354,1012 L 381,999 492,748 772,1049 836,1024 860,1049 C 881,1039 901,1025 922,1006 886,937 835,863 770,784 769,783 710,716 594,584 L 774,223 C 774,196 753,168 711,139 L 727,119 C 717,90 699,76 672,76 641,76 570,178 457,381 L 164,-76 C 142,-110 111,-127 72,-127 30,-127 9,-110 8,-76 1,-67 -2,-52 -2,-32 -2,-23 -1,-13 0,-2 Z"/>
  </g>
  <g id="bullet-char-template-10004" transform="scale(0.00048828125,-0.00048828125)">
   <path d="M 285,-33 C 182,-33 111,30 74,156 52,228 41,333 41,471 41,549 55,616 82,672 116,743 169,778 240,778 293,778 328,747 346,684 L 369,508 C 377,444 397,411 428,410 L 1163,1116 C 1174,1127 1196,1133 1229,1133 1271,1133 1292,1118 1292,1087 L 1292,965 C 1292,929 1282,901 1262,881 L 442,47 C 390,-6 338,-33 285,-33 Z"/>
  </g>
  <g id="bullet-char-template-9679" transform="scale(0.00048828125,-0.00048828125)">
   <path d="M 813,0 C 632,0 489,54 383,161 276,268 223,411 223,592 223,773 276,916 383,1023 489,1130 632,1184 813,1184 992,1184 1136,1130 1245,1023 1353,916 1407,772 1407,592 1407,412 1353,268 1245,161 1136,54 992,0 813,0 Z"/>
  </g>
  <g id="bullet-char-template-8226" transform="scale(0.00048828125,-0.00048828125)">
   <path d="M 346,457 C 273,457 209,483 155,535 101,586 74,649 74,723 74,796 101,859 155,911 209,963 273,989 346,989 419,989 480,963 531,910 582,859 608,796 608,723 608,648 583,586 532,535 482,483 420,457 346,457 Z"/>
  </g>
  <g id="bullet-char-template-8211" transform="scale(0.00048828125,-0.00048828125)">
   <path d="M -4,459 L 1135,459 1135,606 -4,606 -4,459 Z"/>
  </g>
  <g id="bullet-char-template-61548" transform="scale(0.00048828125,-0.00048828125)">
   <path d="M 173,740 C 173,903 231,1043 346,1159 462,1274 601,1332 765,1332 928,1332 1067,1274 1183,1159 1299,1043 1357,903 1357,740 1357,577 1299,437 1183,322 1067,206 928,148 765,148 601,148 462,206 346,322 231,437 173,577 173,740 Z"/>
  </g>
 </defs>
 <g class="Page">
  <g class="com.sun.star.drawing.ClosedBezierShape">
   <g id="id3">
    <rect class="BoundingBox" stroke="none" fill="none" x="9589" y="15199" width="929" height="1382"/>
    <path fill="rgb(0,0,0)" stroke="none" d="M 10501,15208 C 10511,15214 10517,15222 10517,15233 10517,15244 10509,15257 10494,15271 10479,15286 10448,15306 10403,15330 10399,15332 10395,15333 10391,15331 10387,15330 10384,15327 10381,15323 10379,15319 10379,15315 10380,15311 10381,15307 10384,15303 10388,15301 10441,15272 10473,15251 10483,15236 10469,15230 10433,15232 10374,15241 10316,15249 10242,15267 10154,15294 10123,15304 10091,15314 10059,15326 10046,15384 10022,15494 9987,15656 9959,15786 9938,15885 9923,15955 9991,15936 10055,15926 10113,15926 10117,15926 10121,15928 10124,15931 10127,15934 10129,15938 10129,15943 10129,15947 10127,15951 10124,15954 10120,15957 10116,15959 10112,15959 10052,15959 9986,15970 9915,15992 9858,16262 9825,16434 9816,16510 9817,16507 9819,16505 9820,16502 9821,16498 9824,16495 9829,16493 9833,16491 9837,16491 9841,16493 9846,16495 9849,16498 9850,16502 9852,16506 9852,16510 9850,16514 9840,16538 9832,16555 9825,16565 9819,16575 9812,16579 9804,16580 9802,16579 9800,16579 9798,16578 9789,16575 9784,16567 9783,16554 9781,16541 9784,16513 9789,16471 9797,16420 9810,16346 9828,16250 9842,16182 9859,16100 9879,16003 9797,16034 9723,16076 9657,16130 9654,16133 9651,16134 9647,16134 9642,16134 9638,16132 9634,16128 9631,16125 9630,16121 9631,16116 9631,16112 9633,16108 9637,16105 9710,16044 9794,15997 9888,15966 9902,15895 9925,15789 9955,15648 9988,15498 10010,15395 10022,15339 9860,15398 9724,15464 9615,15538 9612,15540 9609,15540 9605,15540 9600,15540 9595,15538 9592,15534 9590,15530 9589,15526 9590,15521 9591,15517 9593,15514 9597,15511 9713,15433 9857,15363 10030,15301 10034,15280 10038,15261 10041,15245 10042,15241 10044,15237 10048,15235 10052,15232 10056,15231 10060,15232 10065,15233 10068,15235 10071,15239 10073,15243 10074,15247 10073,15251 10071,15262 10068,15275 10066,15288 10090,15281 10113,15273 10135,15266 10185,15251 10234,15237 10281,15226 10327,15215 10372,15207 10415,15202 10458,15197 10487,15199 10501,15208 Z"/>
   </g>
  </g>
  <g class="com.sun.star.drawing.ClosedBezierShape">
   <g id="id4">
    <rect class="BoundingBox" stroke="none" fill="none" x="10193" y="15846" width="326" height="232"/>
    <path fill="rgb(0,0,0)" stroke="none" d="M 10499,15902 C 10503,15902 10507,15903 10511,15906 10515,15908 10517,15912 10517,15917 10518,15921 10517,15925 10514,15928 10491,15958 10463,15982 10431,15999 10399,16016 10368,16021 10340,16015 10332,16034 10321,16049 10307,16060 10293,16071 10278,16077 10263,16077 L 10262,16077 C 10247,16077 10234,16072 10222,16062 10210,16052 10202,16038 10198,16021 10191,15993 10192,15966 10202,15941 10212,15916 10226,15897 10245,15885 10248,15882 10253,15882 10258,15884 10263,15871 10270,15861 10280,15855 10289,15848 10299,15845 10309,15847 10315,15848 10320,15851 10325,15854 10329,15858 10334,15864 10339,15872 10344,15880 10347,15892 10350,15908 10352,15925 10352,15944 10351,15967 10351,15972 10350,15978 10349,15984 10370,15988 10394,15983 10420,15968 10447,15952 10469,15932 10488,15908 10490,15905 10494,15903 10499,15902 Z M 10263,16044 C 10271,16044 10279,16040 10288,16033 10297,16026 10304,16016 10310,16003 10273,15983 10254,15955 10252,15920 10241,15931 10233,15945 10229,15963 10225,15981 10225,15997 10229,16011 10235,16033 10247,16044 10263,16044 Z M 10318,15965 C 10319,15951 10319,15940 10319,15930 10318,15920 10317,15912 10316,15906 10315,15899 10313,15894 10311,15890 10310,15886 10308,15884 10307,15882 10305,15880 10304,15879 10304,15879 L 10303,15879 C 10301,15879 10298,15881 10294,15885 10291,15888 10289,15893 10287,15900 10283,15912 10284,15924 10289,15936 10293,15949 10303,15960 10318,15970 10318,15968 10318,15967 10318,15965 Z"/>
   </g>
  </g>
  <g class="com.sun.star.drawing.ClosedBezierShape">
   <g id="id5">
    <rect class="BoundingBox" stroke="none" fill="none" x="10464" y="15893" width="358" height="235"/>
    <path fill="rgb(0,0,0)" stroke="none" d="M 10800,15905 C 10805,15904 10809,15905 10812,15907 10816,15909 10818,15913 10820,15917 10821,15922 10820,15926 10818,15929 10811,15940 10804,15951 10796,15964 10788,15976 10776,15992 10761,16013 10745,16034 10730,16052 10716,16068 10702,16084 10687,16097 10671,16109 10654,16121 10640,16127 10628,16127 10624,16127 10620,16126 10616,16124 10589,16114 10582,16071 10593,15995 10575,16020 10558,16039 10543,16052 10521,16071 10501,16073 10485,16059 10470,16047 10463,16025 10464,15993 10466,15961 10475,15931 10492,15901 10494,15897 10497,15895 10502,15894 10506,15893 10511,15893 10515,15895 10519,15898 10521,15901 10522,15905 10523,15909 10523,15913 10521,15917 10511,15933 10504,15950 10501,15967 10497,15985 10496,16000 10497,16011 10499,16023 10501,16030 10505,16034 10508,16036 10514,16035 10521,16028 10536,16015 10554,15993 10576,15961 10580,15956 10583,15952 10585,15949 10587,15947 10590,15944 10593,15940 10595,15936 10598,15934 10599,15933 10601,15932 10603,15930 10605,15929 10608,15927 10610,15927 10612,15927 10614,15927 10617,15928 10620,15929 10627,15932 10631,15938 10632,15948 10632,15958 10631,15971 10627,15987 10621,16018 10619,16042 10620,16058 10622,16075 10623,16085 10624,16088 10625,16092 10626,16094 10628,16094 10630,16095 10633,16095 10637,16093 10641,16091 10646,16087 10652,16083 10658,16078 10665,16073 10672,16065 10680,16058 10688,16050 10697,16040 10707,16029 10716,16018 10726,16006 10735,15994 10746,15980 10757,15964 10768,15948 10779,15930 10790,15912 10792,15908 10796,15906 10800,15905 Z"/>
   </g>
  </g>
  <g class="com.sun.star.drawing.ClosedBezierShape">
   <g id="id6">
    <rect class="BoundingBox" stroke="none" fill="none" x="10742" y="15818" width="389" height="321"/>
    <path fill="rgb(0,0,0)" stroke="none" d="M 11108,15899 C 11113,15898 11117,15899 11121,15901 11125,15903 11128,15907 11129,15911 11130,15915 11129,15920 11127,15923 11108,15957 11091,15984 11077,16004 11063,16024 11049,16039 11034,16051 11019,16062 11005,16067 10991,16065 10963,16062 10940,16031 10924,15974 10912,15935 10902,15915 10893,15915 10892,15914 10889,15915 10886,15917 10883,15919 10878,15924 10871,15932 10865,15941 10857,15952 10849,15966 10841,15980 10830,16001 10817,16029 10803,16057 10789,16089 10774,16127 10771,16134 10766,16137 10759,16138 10758,16137 10756,16137 10755,16137 10746,16134 10741,16128 10743,16119 10748,16072 10769,15986 10806,15860 10810,15847 10813,15837 10815,15830 10816,15826 10819,15822 10823,15820 10827,15818 10831,15818 10835,15819 10840,15820 10843,15823 10845,15827 10847,15831 10848,15835 10846,15840 10845,15843 10842,15853 10837,15869 10825,15913 10815,15947 10809,15971 10827,15937 10843,15914 10856,15901 10870,15888 10883,15882 10895,15882 10910,15882 10921,15889 10930,15904 10939,15919 10947,15940 10955,15965 10968,16009 10981,16031 10995,16033 11002,16034 11010,16030 11020,16022 11030,16013 11040,16000 11052,15983 11063,15967 11072,15953 11078,15944 11084,15934 11090,15922 11098,15907 11101,15903 11104,15900 11108,15899 Z"/>
   </g>
  </g>
  <g class="com.sun.star.drawing.ClosedBezierShape">
   <g id="id7">
    <rect class="BoundingBox" stroke="none" fill="none" x="11056" y="15375" width="394" height="1106"/>
    <path fill="rgb(0,0,0)" stroke="none" d="M 11442,15382 C 11456,15397 11449,15449 11420,15538 11417,15545 11414,15554 11410,15566 11398,15604 11388,15634 11380,15657 11372,15680 11359,15711 11342,15752 11325,15793 11307,15832 11287,15869 11271,15947 11255,16030 11241,16119 11215,16270 11202,16372 11200,16426 11205,16424 11209,16424 11214,16426 11218,16428 11220,16431 11222,16435 11223,16440 11223,16444 11221,16448 11211,16469 11201,16480 11191,16480 11189,16480 11186,16480 11184,16479 11178,16477 11173,16473 11171,16467 11168,16461 11167,16448 11168,16430 11168,16411 11170,16383 11175,16346 11181,16287 11193,16210 11209,16113 11218,16061 11227,16010 11237,15960 11219,15988 11200,16016 11181,16045 11143,16099 11111,16119 11083,16103 11065,16090 11056,16067 11057,16034 11058,16001 11066,15967 11082,15934 11100,15894 11122,15865 11148,15846 11173,15827 11196,15821 11215,15827 11235,15833 11246,15848 11249,15872 11252,15867 11255,15863 11257,15858 11287,15716 11317,15602 11347,15516 11377,15429 11402,15383 11421,15377 11429,15374 11436,15376 11442,15382 Z M 11154,16026 C 11181,15988 11205,15949 11227,15911 11219,15908 11215,15902 11217,15894 11219,15873 11216,15861 11206,15858 11205,15858 11203,15858 11201,15858 11189,15858 11175,15866 11157,15881 11140,15897 11125,15919 11111,15948 11102,15967 11096,15986 11093,16005 11090,16025 11089,16041 11091,16053 11093,16065 11096,16072 11100,16074 11102,16076 11105,16075 11108,16074 11112,16073 11118,16068 11126,16060 11135,16051 11144,16040 11154,16026 Z M 11388,15528 C 11399,15493 11408,15464 11413,15440 11385,15498 11355,15589 11324,15712 11340,15674 11358,15622 11379,15557 11383,15544 11386,15535 11388,15528 Z"/>
   </g>
  </g>
  <g class="com.sun.star.drawing.ClosedBezierShape">
   <g id="id8">
    <rect class="BoundingBox" stroke="none" fill="none" x="11325" y="15816" width="387" height="297"/>
    <path fill="rgb(0,0,0)" stroke="none" d="M 11689,15901 C 11694,15899 11698,15900 11702,15902 11706,15904 11708,15907 11710,15911 11711,15915 11711,15919 11709,15923 11649,16048 11595,16111 11548,16111 11545,16111 11542,16111 11538,16110 11500,16103 11477,16052 11468,15957 11440,15995 11416,16025 11394,16049 11375,16069 11359,16076 11345,16070 11332,16065 11325,16050 11326,16026 11326,16006 11330,15981 11339,15953 11348,15925 11362,15897 11379,15871 11397,15844 11415,15827 11436,15821 11466,15810 11493,15820 11519,15850 11522,15854 11523,15858 11523,15862 11522,15867 11520,15870 11517,15873 11514,15876 11510,15878 11505,15878 11501,15878 11497,15876 11494,15872 11474,15849 11454,15844 11434,15859 11411,15875 11392,15905 11376,15947 11361,15990 11354,16020 11358,16038 11361,16035 11365,16031 11370,16027 11392,16003 11420,15968 11453,15923 11460,15912 11465,15905 11468,15901 11472,15896 11478,15894 11486,15896 11493,15898 11497,15903 11498,15911 11499,15938 11501,15963 11504,15984 11508,16006 11511,16022 11515,16033 11518,16044 11522,16054 11526,16061 11531,16068 11534,16073 11537,16075 11540,16077 11542,16078 11545,16078 11553,16080 11563,16076 11575,16066 11587,16057 11603,16039 11622,16012 11641,15985 11660,15951 11680,15910 11682,15905 11685,15902 11689,15901 Z"/>
   </g>
  </g>
  <g class="com.sun.star.drawing.ClosedBezierShape">
   <g id="id9">
    <rect class="BoundingBox" stroke="none" fill="none" x="11428" y="15374" width="952" height="1248"/>
    <path fill="rgb(0,0,0)" stroke="none" d="M 12375,15590 C 12378,15593 12379,15597 12378,15602 12378,15606 12375,15610 12371,15613 12365,15617 12358,15617 12352,15612 12325,15602 12134,15602 11781,15610 11744,15764 11707,15931 11669,16112 11624,16330 11597,16479 11587,16561 11588,16561 11589,16561 11590,16562 11595,16563 11598,16565 11600,16570 11601,16574 11601,16578 11600,16582 11597,16591 11595,16598 11593,16602 11591,16606 11588,16610 11584,16615 11580,16619 11575,16621 11571,16621 11569,16621 11567,16621 11565,16620 11558,16618 11553,16612 11552,16602 11550,16593 11551,16580 11554,16563 11556,16540 11561,16505 11569,16461 11583,16376 11605,16265 11633,16130 11671,15946 11709,15773 11747,15610 11709,15611 11661,15612 11604,15614 11514,15616 11461,15617 11445,15617 11440,15617 11436,15616 11433,15612 11430,15609 11429,15606 11429,15601 11429,15598 11429,15596 11431,15593 11432,15590 11434,15588 11437,15587 11439,15586 11442,15585 11445,15585 11461,15585 11513,15583 11603,15581 11659,15580 11710,15578 11756,15577 11774,15503 11790,15439 11804,15387 11805,15383 11808,15379 11811,15377 11815,15375 11820,15374 11824,15375 11828,15376 11831,15379 11833,15383 11836,15387 11836,15391 11835,15396 11822,15446 11806,15506 11789,15576 11958,15572 12086,15570 12172,15571 12259,15572 12313,15574 12335,15577 12358,15579 12371,15584 12375,15590 Z"/>
   </g>
  </g>
  <g class="com.sun.star.drawing.ClosedBezierShape">
   <g id="id10">
    <rect class="BoundingBox" stroke="none" fill="none" x="11775" y="15788" width="257" height="316"/>
    <path fill="rgb(0,0,0)" stroke="none" d="M 12011,15896 C 12015,15895 12019,15895 12023,15898 12027,15900 12029,15903 12030,15908 12031,15912 12030,15917 12028,15921 12012,15945 11993,15971 11971,15998 11949,16025 11923,16049 11896,16071 11868,16092 11844,16103 11825,16103 11818,16103 11812,16102 11807,16100 11769,16083 11765,16017 11795,15900 11796,15896 11799,15892 11803,15890 11807,15888 11811,15887 11815,15888 11819,15889 11823,15892 11825,15896 11827,15900 11828,15904 11827,15908 11820,15935 11815,15959 11812,15980 11809,16000 11807,16016 11807,16027 11808,16037 11809,16046 11811,16053 11813,16060 11815,16065 11816,16066 11817,16068 11819,16069 11820,16069 11834,16075 11861,16061 11900,16025 11938,15989 11972,15949 12000,15903 12003,15899 12006,15897 12011,15896 Z M 11823,15829 C 11807,15829 11802,15823 11808,15810 11814,15800 11821,15793 11830,15790 11844,15785 11852,15789 11855,15801 11858,15812 11854,15821 11843,15826 11837,15828 11830,15829 11823,15829 Z"/>
   </g>
  </g>
  <g class="com.sun.star.drawing.ClosedBezierShape">
   <g id="id11">
    <rect class="BoundingBox" stroke="none" fill="none" x="11975" y="15846" width="326" height="232"/>
    <path fill="rgb(0,0,0)" stroke="none" d="M 12281,15902 C 12285,15902 12289,15903 12293,15906 12297,15908 12299,15912 12299,15917 12300,15921 12299,15925 12296,15928 12273,15958 12245,15982 12213,15999 12181,16016 12150,16021 12122,16015 12114,16034 12103,16049 12089,16060 12075,16071 12060,16077 12045,16077 L 12044,16077 C 12029,16077 12016,16072 12004,16062 11992,16052 11984,16038 11980,16021 11973,15993 11974,15966 11984,15941 11994,15916 12008,15897 12027,15885 12030,15882 12035,15882 12040,15884 12045,15871 12052,15861 12062,15855 12071,15848 12081,15845 12091,15847 12097,15848 12102,15851 12107,15854 12111,15858 12116,15864 12121,15872 12126,15880 12129,15892 12132,15908 12134,15925 12134,15944 12133,15967 12133,15972 12132,15978 12131,15984 12152,15988 12176,15983 12202,15968 12229,15952 12251,15932 12270,15908 12272,15905 12276,15903 12281,15902 Z M 12045,16044 C 12053,16044 12061,16040 12070,16033 12079,16026 12086,16016 12092,16003 12055,15983 12036,15955 12034,15920 12023,15931 12015,15945 12011,15963 12007,15981 12007,15997 12011,16011 12017,16033 12029,16044 12045,16044 Z M 12100,15965 C 12101,15951 12101,15940 12101,15930 12100,15920 12099,15912 12098,15906 12097,15899 12095,15894 12093,15890 12092,15886 12090,15884 12089,15882 12087,15880 12086,15879 12086,15879 L 12085,15879 C 12083,15879 12080,15881 12076,15885 12073,15888 12071,15893 12069,15900 12065,15912 12066,15924 12071,15936 12075,15949 12085,15960 12100,15970 12100,15968 12100,15967 12100,15965 Z"/>
   </g>
  </g>
  <g class="com.sun.star.drawing.ClosedBezierShape">
   <g id="id12">
    <rect class="BoundingBox" stroke="none" fill="none" x="12219" y="15818" width="389" height="321"/>
    <path fill="rgb(0,0,0)" stroke="none" d="M 12585,15899 C 12590,15898 12594,15899 12598,15901 12602,15903 12605,15907 12606,15911 12607,15915 12606,15920 12604,15923 12585,15957 12568,15984 12554,16004 12540,16024 12526,16039 12511,16051 12496,16062 12482,16067 12468,16065 12440,16062 12417,16031 12401,15974 12389,15935 12379,15915 12370,15915 12369,15914 12366,15915 12363,15917 12360,15919 12355,15924 12348,15932 12342,15941 12334,15952 12326,15966 12318,15980 12307,16001 12294,16029 12280,16057 12266,16089 12251,16127 12248,16134 12243,16137 12236,16138 12235,16137 12233,16137 12232,16137 12223,16134 12218,16128 12220,16119 12225,16072 12246,15986 12283,15860 12287,15847 12290,15837 12292,15830 12293,15826 12296,15822 12300,15820 12304,15818 12308,15818 12312,15819 12317,15820 12320,15823 12322,15827 12324,15831 12325,15835 12323,15840 12322,15843 12319,15853 12314,15869 12302,15913 12292,15947 12286,15971 12304,15937 12320,15914 12333,15901 12347,15888 12360,15882 12372,15882 12387,15882 12398,15889 12407,15904 12416,15919 12424,15940 12432,15965 12445,16009 12458,16031 12472,16033 12479,16034 12487,16030 12497,16022 12507,16013 12517,16000 12529,15983 12540,15967 12549,15953 12555,15944 12561,15934 12567,15922 12575,15907 12578,15903 12581,15900 12585,15899 Z"/>
   </g>
  </g>
 </g>
</svg>