<?xml version="1.0" encoding="UTF-8"?>
<!DOCTYPE svg PUBLIC "-//W3C//DTD SVG 1.1//EN" "http://www.w3.org/Graphics/SVG/1.1/DTD/svg11.dtd">
<svg version="1.2" width="20.55mm" height="10.86mm" viewBox="3821 12843 2055 1086" preserveAspectRatio="xMidYMid" fill-rule="evenodd" stroke-width="28.222" stroke-linejoin="round" xmlns="http://www.w3.org/2000/svg" xmlns:ooo="http://xml.openoffice.org/svg/export" xmlns:xlink="http://www.w3.org/1999/xlink" xmlns:presentation="http://sun.com/xmlns/staroffice/presentation" xmlns:smil="http://www.w3.org/2001/SMIL20/" xmlns:anim="urn:oasis:names:tc:opendocument:xmlns:animation:1.0" xmlns:svg="urn:oasis:names:tc:opendocument:xmlns:svg-compatible:1.0" xml:space="preserve">
 <defs class="EmbeddedBulletChars">
  <g id="bullet-char-template-57356" transform="scale(0.00048828125,-0.00048828125)">
   <path d="M 580,1141 L 1163,571 580,0 -4,571 580,1141 Z"/>
  </g>
  <g id="bullet-char-template-57354" transform="scale(0.00048828125,-0.00048828125)">
   <path d="M 8,1128 L 1137,1128 1137,0 8,0 8,1128 Z"/>
  </g>
  <g id="bullet-char-template-10146" transform="scale(0.00048828125,-0.00048828125)">
   <path d="M 174,0 L 602,739 174,1481 1456,739 174,0 Z M 1358,739 L 309,1346 659,739 1358,739 Z"/>
  </g>
  <g id="bullet-char-template-10132" transform="scale(0.00048828125,-0.00048828125)">
   <path d="M 2015,739 L 1276,0 717,0 1260,543 174,543 174,936 1260,936 717,1481 1274,1481 2015,739 Z"/>
  </g>
  <g id="bullet-char-template-10007" transform="scale(0.00048828125,-0.00048828125)">
   <path d="M 0,-2 C -7,14 -16,27 -25,37 L 356,567 C 262,823 215,952 215,954 215,979 228,992 255,992 264,992 276,990 289,987 310,991 331,999 354,1012 L 381,999 492,748 772,1049 836,1024 860,1049 C 881,1039 901,1025 922,1006 886,937 835,863 770,784 769,783 710,716 594,584 L 774,223 C 774,196 753,168 711,139 L 727,119 C 717,90 699,76 672,76 641,76 570,178 457,381 L 164,-76 C 142,-110 111,-127 72,-127 30,-127 9,-110 8,-76 1,-67 -2,-52 -2,-32 -2,-23 -1,-13 0,-2 Z"/>
  </g>
  <g id="bullet-char-template-10004" transform="scale(0.00048828125,-0.00048828125)">
   <path d="M 285,-33 C 182,-33 111,30 74,156 52,228 41,333 41,471 41,549 55,616 82,672 116,743 169,778 240,778 293,778 328,747 346,684 L 369,508 C 377,444 397,411 428,410 L 1163,1116 C 1174,1127 1196,1133 1229,1133 1271,1133 1292,1118 1292,1087 L 1292,965 C 1292,929 1282,901 1262,881 L 442,47 C 390,-6 338,-33 285,-33 Z"/>
  </g>
  <g id="bullet-char-template-9679" transform="scale(0.00048828125,-0.00048828125)">
   <path d="M 813,0 C 632,0 489,54 383,161 276,268 223,411 223,592 223,773 276,916 383,1023 489,1130 632,1184 813,1184 992,1184 1136,1130 1245,1023 1353,916 1407,772 1407,592 1407,412 1353,268 1245,161 1136,54 992,0 813,0 Z"/>
  </g>
  <g id="bullet-char-template-8226" transform="scale(0.00048828125,-0.00048828125)">
   <path d="M 346,457 C 273,457 209,483 155,535 101,586 74,649 74,723 74,796 101,859 155,911 209,963 273,989 346,989 419,989 480,963 531,910 582,859 608,796 608,723 608,648 583,586 532,535 482,483 420,457 346,457 Z"/>
  </g>
  <g id="bullet-char-template-8211" transform="scale(0.00048828125,-0.00048828125)">
   <path d="M -4,459 L 1135,459 1135,606 -4,606 -4,459 Z"/>
  </g>
  <g id="bullet-char-template-61548" transform="scale(0.00048828125,-0.00048828125)">
   <path d="M 173,740 C 173,903 231,1043 346,1159 462,1274 601,1332 765,1332 928,1332 1067,1274 1183,1159 1299,1043 1357,903 1357,740 1357,577 1299,437 1183,322 1067,206 928,148 765,148 601,148 462,206 346,322 231,437 173,577 173,740 Z"/>
  </g>
 </defs>
 <g class="Page">
  <g class="com.sun.star.drawing.ClosedBezierShape">
   <g id="id3">
    <rect class="BoundingBox" stroke="none" fill="none" x="3821" y="12843" width="317" height="1027"/>
    <path fill="rgb(0,0,0)" stroke="none" d="M 4118,12848 C 4139,12862 4142,12903 4126,12970 4099,13081 4064,13236 4019,13435 3975,13635 3948,13765 3939,13824 3939,13825 3939,13825 3939,13825 3943,13826 3945,13828 3946,13831 3947,13834 3948,13837 3947,13840 3944,13846 3942,13851 3941,13854 3939,13857 3937,13861 3934,13864 3932,13867 3929,13868 3926,13869 3924,13868 3923,13868 3921,13868 3916,13866 3912,13861 3912,13854 3911,13846 3912,13835 3915,13819 3918,13798 3924,13768 3932,13729 3945,13662 3965,13569 3991,13451 4034,13257 4071,13095 4102,12965 4108,12941 4111,12921 4111,12905 4112,12890 4111,12880 4109,12877 4108,12873 4106,12871 4104,12869 4097,12865 4082,12871 4061,12888 4037,12906 4012,12933 3984,12969 3956,13005 3931,13043 3908,13085 3885,13126 3867,13168 3856,13210 3844,13253 3843,13287 3852,13314 3864,13350 3897,13368 3950,13368 3953,13368 3956,13369 3959,13372 3961,13374 3962,13377 3962,13381 3962,13384 3961,13387 3959,13389 3956,13392 3953,13393 3950,13393 3938,13393 3926,13392 3915,13390 3904,13388 3892,13384 3880,13379 3869,13374 3858,13366 3849,13357 3840,13347 3833,13335 3829,13321 3825,13310 3823,13299 3822,13286 3822,13274 3822,13261 3823,13249 3824,13237 3827,13224 3830,13211 3833,13197 3837,13185 3841,13173 3845,13161 3850,13149 3855,13137 3860,13124 3865,13113 3870,13104 3875,13094 3880,13084 3885,13075 3907,13032 3934,12992 3963,12954 3992,12916 4020,12887 4045,12867 4076,12844 4100,12837 4118,12848 Z"/>
   </g>
  </g>
  <g class="com.sun.star.drawing.ClosedBezierShape">
   <g id="id4">
    <rect class="BoundingBox" stroke="none" fill="none" x="4084" y="13273" width="292" height="240"/>
    <path fill="rgb(0,0,0)" stroke="none" d="M 4359,13334 C 4362,13333 4366,13334 4369,13336 4372,13337 4373,13340 4374,13343 4375,13346 4375,13349 4373,13352 4359,13378 4346,13398 4336,13413 4325,13427 4314,13439 4303,13447 4292,13456 4281,13459 4271,13458 4250,13456 4233,13433 4221,13390 4212,13361 4204,13346 4198,13346 4196,13346 4195,13346 4192,13348 4190,13349 4186,13353 4181,13359 4176,13365 4171,13373 4164,13384 4158,13395 4150,13410 4140,13431 4130,13452 4120,13476 4108,13504 4106,13509 4102,13512 4097,13512 4096,13512 4095,13512 4094,13511 4087,13510 4084,13505 4085,13498 4089,13463 4105,13399 4132,13305 4135,13295 4137,13288 4139,13283 4140,13279 4142,13277 4145,13275 4148,13274 4151,13273 4154,13274 4157,13275 4160,13277 4162,13280 4163,13283 4163,13286 4162,13290 4161,13292 4159,13300 4156,13312 4147,13344 4139,13370 4134,13388 4148,13363 4160,13345 4170,13336 4180,13326 4190,13321 4199,13321 4210,13321 4219,13327 4225,13338 4232,13349 4238,13364 4244,13383 4253,13416 4263,13433 4274,13434 4279,13435 4285,13432 4293,13426 4300,13419 4308,13410 4316,13397 4325,13385 4331,13375 4336,13368 4340,13360 4345,13351 4351,13340 4353,13337 4356,13335 4359,13334 Z"/>
   </g>
  </g>
  <g class="com.sun.star.drawing.ClosedBezierShape">
   <g id="id5">
    <rect class="BoundingBox" stroke="none" fill="none" x="4352" y="13261" width="277" height="464"/>
    <path fill="rgb(0,0,0)" stroke="none" d="M 4614,13329 C 4618,13329 4621,13330 4623,13332 4626,13334 4627,13337 4628,13340 4628,13344 4627,13347 4624,13349 4542,13445 4495,13500 4484,13515 4476,13524 4469,13533 4463,13542 4468,13566 4469,13589 4464,13612 4459,13634 4452,13653 4442,13669 4433,13686 4422,13699 4409,13709 4397,13719 4386,13724 4376,13724 4370,13724 4365,13722 4360,13718 4338,13696 4363,13636 4436,13537 4431,13521 4424,13505 4414,13490 4392,13458 4377,13432 4367,13411 4357,13390 4352,13370 4353,13353 4354,13336 4358,13321 4366,13307 4375,13294 4386,13283 4400,13274 4412,13267 4424,13263 4437,13262 4450,13261 4462,13262 4473,13267 4476,13269 4478,13272 4479,13275 4480,13278 4480,13281 4479,13284 4477,13287 4475,13289 4472,13290 4469,13291 4466,13291 4463,13290 4447,13282 4431,13284 4412,13295 4390,13308 4379,13328 4377,13354 4377,13368 4381,13385 4391,13404 4401,13423 4415,13447 4434,13476 4442,13488 4449,13501 4454,13513 4457,13509 4461,13505 4464,13500 4476,13485 4524,13429 4606,13333 4608,13331 4611,13329 4614,13329 Z M 4417,13664 C 4435,13635 4444,13604 4442,13571 4424,13596 4410,13619 4399,13638 4388,13658 4381,13673 4379,13681 4377,13690 4376,13696 4377,13699 4381,13699 4386,13696 4394,13689 4402,13683 4409,13675 4417,13664 Z"/>
   </g>
  </g>
  <g class="com.sun.star.drawing.ClosedBezierShape">
   <g id="id6">
    <rect class="BoundingBox" stroke="none" fill="none" x="4507" y="13186" width="253" height="743"/>
    <path fill="rgb(0,0,0)" stroke="none" d="M 4731,13241 C 4743,13245 4752,13255 4756,13271 4760,13288 4760,13307 4754,13328 4744,13365 4719,13400 4679,13431 4663,13445 4644,13457 4624,13467 4609,13529 4592,13606 4573,13699 4555,13791 4541,13864 4532,13918 4531,13925 4526,13928 4520,13928 4519,13928 4518,13928 4518,13928 4516,13928 4514,13927 4512,13925 4510,13924 4509,13922 4508,13920 4507,13918 4507,13916 4508,13914 4519,13840 4543,13697 4581,13485 4576,13487 4571,13489 4565,13490 4562,13491 4559,13491 4556,13489 4553,13487 4551,13485 4550,13482 4549,13478 4550,13475 4551,13472 4553,13469 4556,13467 4559,13466 4568,13464 4576,13461 4585,13457 4588,13443 4592,13421 4597,13392 4619,13268 4630,13204 4631,13198 4631,13195 4632,13192 4634,13189 4637,13187 4639,13186 4642,13186 4646,13186 4649,13187 4651,13189 4654,13192 4655,13195 4656,13198 4656,13201 4646,13259 4626,13370 4632,13352 4639,13336 4645,13322 4652,13308 4658,13296 4664,13287 4669,13277 4675,13270 4681,13263 4687,13257 4692,13252 4697,13249 4702,13246 4706,13244 4711,13242 4715,13241 4719,13240 4722,13240 4725,13240 4728,13240 4731,13241 Z M 4731,13322 C 4734,13305 4735,13292 4733,13282 4731,13272 4728,13266 4724,13265 4723,13264 4722,13264 4722,13264 4719,13264 4716,13265 4713,13267 4710,13269 4706,13272 4701,13278 4696,13283 4690,13290 4685,13298 4680,13306 4674,13318 4667,13332 4661,13346 4654,13363 4648,13381 4644,13394 4639,13412 4633,13435 4657,13420 4678,13403 4695,13383 4713,13364 4725,13343 4731,13322 Z"/>
   </g>
  </g>
  <g class="com.sun.star.drawing.ClosedBezierShape">
   <g id="id7">
    <rect class="BoundingBox" stroke="none" fill="none" x="4790" y="13250" width="193" height="237"/>
    <path fill="rgb(0,0,0)" stroke="none" d="M 4966,13331 C 4970,13330 4973,13331 4976,13333 4979,13334 4980,13337 4981,13340 4982,13344 4981,13347 4979,13350 4968,13368 4953,13388 4937,13408 4920,13428 4901,13446 4880,13462 4859,13478 4841,13486 4827,13486 4822,13486 4818,13485 4814,13483 4785,13471 4782,13422 4805,13334 4806,13331 4808,13329 4811,13327 4814,13325 4817,13325 4820,13326 4823,13326 4825,13328 4827,13331 4829,13334 4829,13337 4828,13340 4823,13360 4820,13378 4817,13394 4815,13409 4814,13421 4814,13429 4814,13437 4815,13444 4817,13449 4818,13454 4819,13457 4820,13458 4821,13459 4822,13460 4823,13461 4834,13465 4854,13454 4883,13428 4912,13401 4937,13371 4959,13336 4961,13334 4963,13332 4966,13331 Z M 4826,13281 C 4814,13281 4810,13276 4814,13267 4819,13259 4824,13254 4831,13252 4841,13248 4848,13251 4850,13260 4852,13269 4849,13275 4840,13279 4836,13280 4831,13281 4826,13281 Z"/>
   </g>
  </g>
  <g class="com.sun.star.drawing.ClosedBezierShape">
   <g id="id8">
    <rect class="BoundingBox" stroke="none" fill="none" x="4937" y="13189" width="292" height="405"/>
    <path fill="rgb(0,0,0)" stroke="none" d="M 5211,13333 C 5214,13332 5217,13332 5220,13333 5223,13335 5225,13337 5227,13340 5228,13344 5228,13347 5226,13350 5215,13374 5202,13399 5187,13425 5173,13451 5157,13477 5140,13503 5123,13530 5106,13551 5089,13568 5072,13585 5058,13593 5046,13593 5043,13593 5040,13592 5038,13591 5020,13584 5015,13558 5021,13512 5027,13470 5043,13409 5068,13331 5068,13331 5067,13331 5067,13331 5067,13332 5067,13332 5066,13332 5057,13338 5049,13343 5043,13346 5037,13349 5029,13353 5018,13357 5008,13361 4998,13364 4989,13364 4979,13364 4971,13361 4963,13355 4947,13343 4938,13327 4938,13307 4937,13287 4945,13265 4961,13240 4970,13225 4982,13212 4996,13201 5010,13189 5021,13187 5031,13193 5037,13196 5041,13202 5042,13209 5043,13217 5039,13232 5031,13253 5022,13275 5008,13304 4988,13339 5001,13340 5023,13331 5053,13312 5058,13308 5062,13305 5065,13304 5068,13302 5071,13301 5075,13299 5078,13297 5081,13297 5084,13297 5086,13297 5089,13298 5092,13300 5098,13305 5099,13314 5095,13327 5052,13458 5036,13537 5045,13565 5045,13567 5046,13568 5046,13569 5050,13569 5055,13567 5062,13561 5069,13555 5078,13545 5088,13533 5098,13520 5110,13505 5122,13487 5134,13469 5147,13448 5162,13422 5176,13396 5190,13369 5204,13339 5206,13336 5208,13334 5211,13333 Z M 4965,13290 C 4961,13305 4962,13317 4967,13325 4998,13272 5014,13235 5017,13216 5011,13219 5006,13224 4999,13231 4993,13238 4986,13247 4979,13257 4972,13268 4967,13279 4965,13290 Z"/>
   </g>
  </g>
  <g class="com.sun.star.drawing.ClosedBezierShape">
   <g id="id9">
    <rect class="BoundingBox" stroke="none" fill="none" x="5179" y="13271" width="291" height="222"/>
    <path fill="rgb(0,0,0)" stroke="none" d="M 5452,13335 C 5456,13334 5459,13334 5462,13336 5465,13337 5467,13339 5468,13343 5469,13346 5469,13349 5467,13352 5422,13445 5382,13492 5346,13492 5344,13492 5342,13492 5339,13491 5311,13486 5293,13448 5286,13377 5266,13405 5247,13428 5231,13446 5217,13461 5205,13466 5194,13461 5184,13458 5179,13447 5180,13429 5180,13413 5183,13395 5190,13374 5197,13353 5207,13332 5220,13312 5233,13293 5247,13280 5262,13275 5285,13267 5306,13274 5325,13297 5327,13300 5328,13303 5327,13306 5327,13309 5326,13312 5323,13314 5321,13316 5318,13318 5314,13318 5311,13318 5308,13316 5306,13314 5291,13296 5276,13293 5261,13304 5244,13316 5229,13338 5218,13370 5206,13401 5201,13424 5204,13437 5206,13435 5209,13433 5213,13429 5230,13411 5250,13385 5275,13351 5281,13344 5284,13338 5286,13335 5290,13331 5294,13330 5300,13331 5305,13333 5308,13336 5309,13342 5310,13363 5311,13381 5314,13397 5316,13414 5319,13426 5321,13434 5324,13442 5327,13449 5330,13455 5334,13460 5336,13464 5338,13465 5340,13467 5342,13467 5344,13467 5350,13469 5358,13466 5367,13459 5376,13452 5388,13438 5402,13418 5416,13398 5430,13373 5445,13342 5447,13338 5449,13336 5452,13335 Z"/>
   </g>
  </g>
  <g class="com.sun.star.drawing.ClosedBezierShape">
   <g id="id10">
    <rect class="BoundingBox" stroke="none" fill="none" x="5445" y="13261" width="277" height="464"/>
    <path fill="rgb(0,0,0)" stroke="none" d="M 5707,13329 C 5711,13329 5714,13330 5716,13332 5719,13334 5720,13337 5721,13340 5721,13344 5720,13347 5717,13349 5635,13445 5588,13500 5577,13515 5569,13524 5562,13533 5556,13542 5561,13566 5562,13589 5557,13612 5552,13634 5545,13653 5535,13669 5526,13686 5515,13699 5502,13709 5490,13719 5479,13724 5469,13724 5463,13724 5458,13722 5453,13718 5431,13696 5456,13636 5529,13537 5524,13521 5517,13505 5507,13490 5485,13458 5470,13432 5460,13411 5450,13390 5445,13370 5446,13353 5447,13336 5451,13321 5459,13307 5468,13294 5479,13283 5493,13274 5505,13267 5517,13263 5530,13262 5543,13261 5555,13262 5566,13267 5569,13269 5571,13272 5572,13275 5573,13278 5573,13281 5572,13284 5570,13287 5568,13289 5565,13290 5562,13291 5559,13291 5556,13290 5540,13282 5524,13284 5505,13295 5483,13308 5472,13328 5470,13354 5470,13368 5474,13385 5484,13404 5494,13423 5508,13447 5527,13476 5535,13488 5542,13501 5547,13513 5550,13509 5554,13505 5557,13500 5569,13485 5617,13429 5699,13333 5701,13331 5704,13329 5707,13329 Z M 5510,13664 C 5528,13635 5537,13604 5535,13571 5517,13596 5503,13619 5492,13638 5481,13658 5474,13673 5472,13681 5470,13690 5469,13696 5470,13699 5474,13699 5479,13696 5487,13689 5495,13683 5502,13675 5510,13664 Z"/>
   </g>
  </g>
  <g class="com.sun.star.drawing.ClosedBezierShape">
   <g id="id11">
    <rect class="BoundingBox" stroke="none" fill="none" x="5683" y="13250" width="193" height="237"/>
    <path fill="rgb(0,0,0)" stroke="none" d="M 5859,13331 C 5863,13330 5866,13331 5869,13333 5872,13334 5873,13337 5874,13340 5875,13344 5874,13347 5873,13350 5861,13368 5846,13388 5830,13408 5813,13428 5794,13446 5773,13462 5752,13478 5734,13486 5720,13486 5715,13486 5711,13485 5707,13483 5678,13471 5675,13422 5698,13334 5699,13331 5701,13329 5704,13327 5707,13325 5710,13325 5713,13326 5716,13326 5718,13328 5720,13331 5722,13334 5722,13337 5721,13340 5716,13360 5713,13378 5710,13394 5708,13409 5707,13421 5707,13429 5707,13437 5708,13444 5710,13449 5711,13454 5712,13457 5713,13458 5714,13459 5715,13460 5716,13461 5727,13465 5747,13454 5776,13428 5805,13401 5830,13371 5852,13336 5854,13334 5856,13332 5859,13331 Z M 5719,13281 C 5707,13281 5703,13276 5707,13267 5712,13259 5717,13254 5724,13252 5734,13248 5741,13251 5743,13260 5745,13269 5742,13275 5733,13279 5729,13280 5724,13281 5719,13281 Z"/>
   </g>
  </g>
 </g>
</svg>