<?xml version="1.0" encoding="UTF-8"?>
<!DOCTYPE svg PUBLIC "-//W3C//DTD SVG 1.1//EN" "http://www.w3.org/Graphics/SVG/1.1/DTD/svg11.dtd">
<svg version="1.2" width="31.08mm" height="14.53mm" viewBox="9297 12386 3108 1453" preserveAspectRatio="xMidYMid" fill-rule="evenodd" stroke-width="28.222" stroke-linejoin="round" xmlns="http://www.w3.org/2000/svg" xmlns:ooo="http://xml.openoffice.org/svg/export" xmlns:xlink="http://www.w3.org/1999/xlink" xmlns:presentation="http://sun.com/xmlns/staroffice/presentation" xmlns:smil="http://www.w3.org/2001/SMIL20/" xmlns:anim="urn:oasis:names:tc:opendocument:xmlns:animation:1.0" xmlns:svg="urn:oasis:names:tc:opendocument:xmlns:svg-compatible:1.0" xml:space="preserve">
 <defs class="EmbeddedBulletChars">
  <g id="bullet-char-template-57356" transform="scale(0.00048828125,-0.00048828125)">
   <path d="M 580,1141 L 1163,571 580,0 -4,571 580,1141 Z"/>
  </g>
  <g id="bullet-char-template-57354" transform="scale(0.00048828125,-0.00048828125)">
   <path d="M 8,1128 L 1137,1128 1137,0 8,0 8,1128 Z"/>
  </g>
  <g id="bullet-char-template-10146" transform="scale(0.00048828125,-0.00048828125)">
   <path d="M 174,0 L 602,739 174,1481 1456,739 174,0 Z M 1358,739 L 309,1346 659,739 1358,739 Z"/>
  </g>
  <g id="bullet-char-template-10132" transform="scale(0.00048828125,-0.00048828125)">
   <path d="M 2015,739 L 1276,0 717,0 1260,543 174,543 174,936 1260,936 717,1481 1274,1481 2015,739 Z"/>
  </g>
  <g id="bullet-char-template-10007" transform="scale(0.00048828125,-0.00048828125)">
   <path d="M 0,-2 C -7,14 -16,27 -25,37 L 356,567 C 262,823 215,952 215,954 215,979 228,992 255,992 264,992 276,990 289,987 310,991 331,999 354,1012 L 381,999 492,748 772,1049 836,1024 860,1049 C 881,1039 901,1025 922,1006 886,937 835,863 770,784 769,783 710,716 594,584 L 774,223 C 774,196 753,168 711,139 L 727,119 C 717,90 699,76 672,76 641,76 570,178 457,381 L 164,-76 C 142,-110 111,-127 72,-127 30,-127 9,-110 8,-76 1,-67 -2,-52 -2,-32 -2,-23 -1,-13 0,-2 Z"/>
  </g>
  <g id="bullet-char-template-10004" transform="scale(0.00048828125,-0.00048828125)">
   <path d="M 285,-33 C 182,-33 111,30 74,156 52,228 41,333 41,471 41,549 55,616 82,672 116,743 169,778 240,778 293,778 328,747 346,684 L 369,508 C 377,444 397,411 428,410 L 1163,1116 C 1174,1127 1196,1133 1229,1133 1271,1133 1292,1118 1292,1087 L 1292,965 C 1292,929 1282,901 1262,881 L 442,47 C 390,-6 338,-33 285,-33 Z"/>
  </g>
  <g id="bullet-char-template-9679" transform="scale(0.00048828125,-0.00048828125)">
   <path d="M 813,0 C 632,0 489,54 383,161 276,268 223,411 223,592 223,773 276,916 383,1023 489,1130 632,1184 813,1184 992,1184 1136,1130 1245,1023 1353,916 1407,772 1407,592 1407,412 1353,268 1245,161 1136,54 992,0 813,0 Z"/>
  </g>
  <g id="bullet-char-template-8226" transform="scale(0.00048828125,-0.00048828125)">
   <path d="M 346,457 C 273,457 209,483 155,535 101,586 74,649 74,723 74,796 101,859 155,911 209,963 273,989 346,989 419,989 480,963 531,910 582,859 608,796 608,723 608,648 583,586 532,535 482,483 420,457 346,457 Z"/>
  </g>
  <g id="bullet-char-template-8211" transform="scale(0.00048828125,-0.00048828125)">
   <path d="M -4,459 L 1135,459 1135,606 -4,606 -4,459 Z"/>
  </g>
  <g id="bullet-char-template-61548" transform="scale(0.00048828125,-0.00048828125)">
   <path d="M 173,740 C 173,903 231,1043 346,1159 462,1274 601,1332 765,1332 928,1332 1067,1274 1183,1159 1299,1043 1357,903 1357,740 1357,577 1299,437 1183,322 1067,206 928,148 765,148 601,148 462,206 346,322 231,437 173,577 173,740 Z"/>
  </g>
 </defs>
 <g class="Page">
  <g class="Group">
   <g class="com.sun.star.drawing.ClosedBezierShape">
    <g id="id3">
     <rect class="BoundingBox" stroke="none" fill="none" x="9297" y="12386" width="421" height="1374"/>
     <path fill="rgb(0,0,0)" stroke="none" d="M 9692,12393 C 9721,12412 9725,12466 9703,12556 9667,12704 9620,12912 9561,13179 9501,13446 9466,13619 9454,13699 9454,13700 9454,13700 9454,13700 9459,13701 9462,13704 9463,13708 9465,13712 9465,13716 9464,13720 9461,13729 9458,13735 9456,13739 9454,13744 9451,13748 9448,13752 9444,13756 9440,13758 9436,13759 9434,13758 9432,13758 9430,13758 9422,13755 9418,13748 9417,13739 9416,13729 9418,13713 9422,13692 9426,13665 9434,13625 9444,13572 9462,13482 9488,13357 9524,13199 9581,12940 9630,12723 9671,12549 9679,12517 9683,12490 9684,12469 9684,12449 9683,12436 9681,12431 9679,12426 9677,12423 9674,12421 9664,12415 9645,12423 9616,12446 9585,12470 9551,12506 9514,12554 9477,12602 9443,12654 9412,12709 9381,12764 9358,12820 9343,12877 9327,12934 9325,12980 9337,13016 9354,13065 9397,13089 9468,13089 9473,13089 9477,13091 9480,13094 9483,13097 9485,13101 9485,13105 9485,13110 9483,13114 9480,13117 9477,13120 9473,13122 9468,13122 9452,13122 9436,13121 9421,13118 9406,13115 9391,13110 9376,13103 9360,13097 9346,13087 9334,13073 9322,13060 9313,13044 9307,13025 9302,13011 9299,12996 9298,12979 9297,12962 9297,12946 9299,12929 9301,12913 9304,12896 9308,12878 9313,12860 9318,12843 9323,12828 9329,12812 9335,12795 9342,12779 9349,12762 9356,12747 9362,12735 9368,12722 9374,12709 9381,12696 9412,12639 9447,12586 9486,12535 9525,12484 9562,12445 9596,12419 9637,12387 9669,12378 9692,12393 Z"/>
    </g>
   </g>
   <g class="com.sun.star.drawing.ClosedBezierShape">
    <g id="id4">
     <rect class="BoundingBox" stroke="none" fill="none" x="9650" y="12961" width="389" height="321"/>
     <path fill="rgb(0,0,0)" stroke="none" d="M 10016,13042 C 10021,13041 10025,13042 10029,13044 10033,13046 10036,13050 10037,13054 10038,13058 10037,13063 10035,13066 10016,13100 9999,13127 9985,13147 9971,13167 9957,13182 9942,13194 9927,13205 9913,13210 9899,13208 9871,13205 9848,13174 9832,13117 9820,13078 9810,13058 9801,13058 9800,13057 9797,13058 9794,13060 9791,13062 9786,13067 9779,13075 9773,13084 9765,13095 9757,13109 9749,13123 9738,13144 9725,13172 9711,13200 9697,13232 9682,13270 9679,13277 9674,13280 9667,13281 9666,13280 9664,13280 9663,13280 9654,13277 9649,13271 9651,13262 9656,13215 9677,13129 9714,13003 9718,12990 9721,12980 9723,12973 9724,12969 9727,12965 9731,12963 9735,12961 9739,12961 9743,12962 9748,12963 9751,12966 9753,12970 9755,12974 9756,12978 9754,12983 9753,12986 9750,12996 9745,13012 9733,13056 9723,13090 9717,13114 9735,13080 9751,13057 9764,13044 9778,13031 9791,13025 9803,13025 9818,13025 9829,13032 9838,13047 9847,13062 9855,13083 9863,13108 9876,13152 9889,13174 9903,13176 9910,13177 9918,13173 9928,13165 9938,13156 9948,13143 9960,13126 9971,13110 9980,13096 9986,13087 9992,13077 9998,13065 10006,13050 10009,13046 10012,13043 10016,13042 Z"/>
    </g>
   </g>
   <g class="com.sun.star.drawing.ClosedBezierShape">
    <g id="id5">
     <rect class="BoundingBox" stroke="none" fill="none" x="10008" y="12944" width="369" height="621"/>
     <path fill="rgb(0,0,0)" stroke="none" d="M 10358,13035 C 10362,13035 10366,13036 10370,13039 10373,13042 10375,13046 10376,13051 10376,13055 10375,13059 10371,13063 10262,13190 10199,13264 10183,13284 10174,13296 10165,13309 10155,13320 10163,13353 10164,13384 10157,13414 10150,13444 10141,13470 10128,13491 10116,13513 10101,13530 10084,13544 10069,13557 10054,13564 10040,13564 10032,13564 10025,13561 10019,13556 9989,13527 10023,13446 10120,13314 10114,13292 10104,13271 10090,13251 10062,13208 10041,13173 10028,13145 10014,13117 10008,13091 10009,13068 10010,13045 10016,13025 10027,13006 10038,12988 10053,12974 10072,12962 10087,12953 10104,12947 10122,12945 10139,12944 10155,12946 10170,12953 10174,12955 10177,12959 10178,12963 10179,12967 10179,12971 10177,12975 10175,12979 10172,12982 10168,12983 10164,12985 10159,12984 10155,12983 10135,12973 10113,12976 10089,12990 10059,13008 10044,13034 10042,13069 10041,13088 10047,13110 10060,13136 10073,13162 10092,13194 10117,13232 10128,13249 10137,13265 10144,13282 10148,13277 10153,13270 10158,13264 10174,13244 10237,13170 10347,13041 10350,13038 10353,13036 10358,13035 Z M 10094,13483 C 10119,13445 10130,13404 10128,13359 10104,13393 10085,13423 10070,13449 10056,13476 10047,13495 10044,13507 10041,13518 10040,13526 10041,13531 10046,13530 10054,13526 10064,13518 10074,13510 10084,13498 10094,13483 Z"/>
    </g>
   </g>
   <g class="com.sun.star.drawing.ClosedBezierShape">
    <g id="id6">
     <rect class="BoundingBox" stroke="none" fill="none" x="10214" y="12844" width="337" height="995"/>
     <path fill="rgb(0,0,0)" stroke="none" d="M 10512,12919 C 10529,12924 10540,12938 10546,12959 10552,12981 10551,13007 10543,13035 10530,13085 10497,13131 10444,13174 10421,13192 10397,13208 10371,13221 10350,13304 10328,13408 10302,13531 10277,13655 10259,13753 10247,13824 10245,13833 10240,13838 10231,13838 10230,13838 10229,13838 10228,13838 10226,13837 10223,13836 10221,13835 10218,13833 10217,13831 10216,13828 10215,13825 10214,13822 10215,13819 10230,13720 10262,13529 10312,13246 10305,13248 10299,13250 10292,13252 10287,13253 10283,13253 10279,13251 10275,13249 10273,13245 10272,13241 10270,13236 10271,13232 10273,13228 10276,13224 10279,13221 10283,13220 10295,13218 10306,13214 10318,13208 10322,13189 10327,13159 10334,13120 10364,12955 10379,12868 10379,12861 10379,12857 10381,12853 10384,12850 10387,12847 10390,12845 10394,12845 10399,12845 10403,12847 10406,12850 10410,12853 10412,12857 10412,12861 10412,12866 10399,12942 10372,13091 10381,13068 10389,13046 10398,13027 10407,13008 10415,12992 10423,12980 10430,12968 10438,12957 10446,12949 10454,12940 10461,12934 10467,12930 10473,12926 10480,12922 10485,12920 10491,12918 10496,12917 10501,12917 10505,12917 10509,12918 10512,12919 Z M 10512,13027 C 10517,13005 10518,12987 10516,12973 10513,12960 10509,12952 10503,12951 10502,12950 10501,12950 10500,12950 10497,12950 10493,12951 10489,12953 10485,12956 10479,12961 10472,12968 10466,12975 10459,12984 10452,12995 10444,13006 10437,13021 10428,13040 10419,13060 10410,13082 10402,13107 10396,13124 10390,13147 10382,13178 10414,13158 10442,13135 10465,13109 10489,13083 10504,13056 10512,13027 Z"/>
    </g>
   </g>
   <g class="com.sun.star.drawing.ClosedBezierShape">
    <g id="id7">
     <rect class="BoundingBox" stroke="none" fill="none" x="10590" y="12931" width="257" height="316"/>
     <path fill="rgb(0,0,0)" stroke="none" d="M 10826,13039 C 10830,13038 10834,13038 10838,13041 10842,13043 10844,13046 10845,13051 10846,13055 10845,13060 10843,13064 10827,13088 10808,13114 10786,13141 10764,13168 10738,13192 10711,13214 10683,13235 10659,13246 10640,13246 10633,13246 10627,13245 10622,13243 10584,13226 10580,13160 10610,13043 10611,13039 10614,13035 10618,13033 10622,13031 10626,13030 10630,13031 10634,13032 10638,13035 10640,13039 10642,13043 10643,13047 10642,13051 10635,13078 10630,13102 10627,13123 10624,13143 10622,13159 10622,13170 10623,13180 10624,13189 10626,13196 10628,13203 10630,13208 10631,13209 10632,13211 10634,13212 10635,13212 10649,13218 10676,13204 10715,13168 10753,13132 10787,13092 10815,13046 10818,13042 10821,13040 10826,13039 Z M 10638,12972 C 10622,12972 10617,12966 10623,12953 10629,12943 10636,12936 10645,12933 10659,12928 10667,12932 10670,12944 10673,12955 10669,12964 10658,12969 10652,12971 10645,12972 10638,12972 Z"/>
    </g>
   </g>
   <g class="com.sun.star.drawing.ClosedBezierShape">
    <g id="id8">
     <rect class="BoundingBox" stroke="none" fill="none" x="10795" y="12849" width="389" height="541"/>
     <path fill="rgb(0,0,0)" stroke="none" d="M 11160,13041 C 11165,13039 11169,13040 11173,13042 11177,13044 11179,13047 11181,13051 11183,13055 11183,13059 11180,13063 11165,13096 11148,13130 11129,13164 11109,13199 11088,13234 11066,13269 11043,13304 11020,13333 10997,13355 10975,13378 10956,13389 10940,13389 10936,13389 10932,13388 10929,13386 10906,13377 10898,13342 10907,13281 10915,13224 10936,13143 10969,13039 10969,13039 10968,13039 10968,13039 10968,13039 10967,13040 10967,13040 10954,13048 10944,13054 10936,13059 10928,13063 10917,13068 10903,13074 10889,13079 10876,13082 10864,13082 10851,13082 10840,13078 10829,13071 10807,13055 10796,13034 10796,13006 10795,12979 10805,12950 10826,12917 10839,12897 10855,12879 10873,12864 10892,12849 10907,12845 10920,12854 10928,12858 10933,12866 10934,12876 10936,12886 10931,12906 10919,12935 10908,12964 10889,13002 10863,13049 10880,13051 10909,13039 10949,13012 10956,13007 10962,13004 10966,13002 10969,13000 10973,12998 10978,12995 10983,12993 10987,12992 10991,12993 10994,12993 10997,12995 11001,12997 11009,13004 11011,13016 11005,13033 10949,13208 10926,13314 10938,13352 10939,13354 10940,13356 10941,13357 10945,13357 10952,13354 10961,13346 10971,13338 10982,13325 10996,13308 11010,13291 11025,13271 11041,13247 11057,13224 11075,13194 11094,13160 11114,13126 11133,13089 11151,13050 11153,13045 11156,13042 11160,13041 Z M 10831,12984 C 10826,13003 10827,13019 10835,13031 10876,12959 10898,12911 10901,12885 10894,12889 10886,12896 10878,12905 10869,12914 10860,12925 10850,12940 10841,12954 10835,12969 10831,12984 Z"/>
    </g>
   </g>
   <g class="com.sun.star.drawing.ClosedBezierShape">
    <g id="id9">
     <rect class="BoundingBox" stroke="none" fill="none" x="11118" y="12959" width="387" height="296"/>
     <path fill="rgb(0,0,0)" stroke="none" d="M 11482,13044 C 11487,13042 11491,13043 11495,13045 11499,13047 11501,13050 11503,13054 11504,13058 11504,13062 11502,13066 11442,13191 11388,13254 11341,13254 11338,13254 11335,13254 11331,13253 11293,13246 11270,13195 11261,13100 11233,13138 11209,13168 11187,13192 11168,13212 11152,13219 11138,13213 11125,13208 11118,13193 11119,13169 11119,13149 11123,13124 11132,13096 11141,13068 11155,13040 11172,13014 11190,12987 11208,12970 11229,12964 11259,12953 11286,12963 11312,12993 11315,12997 11316,13001 11316,13005 11315,13010 11313,13013 11310,13016 11307,13019 11303,13021 11298,13021 11294,13021 11290,13019 11287,13015 11267,12992 11247,12987 11227,13002 11204,13018 11185,13048 11169,13090 11154,13133 11147,13163 11151,13181 11154,13178 11158,13174 11163,13170 11185,13146 11213,13111 11246,13066 11253,13055 11258,13048 11261,13044 11265,13039 11271,13037 11279,13039 11286,13041 11290,13046 11291,13054 11292,13081 11294,13106 11297,13127 11301,13149 11304,13165 11308,13176 11311,13187 11315,13197 11319,13204 11324,13211 11327,13216 11330,13218 11333,13220 11335,13221 11338,13221 11346,13223 11356,13219 11368,13209 11380,13200 11396,13182 11415,13155 11434,13128 11453,13094 11473,13053 11475,13048 11478,13045 11482,13044 Z"/>
    </g>
   </g>
   <g class="com.sun.star.drawing.ClosedBezierShape">
    <g id="id10">
     <rect class="BoundingBox" stroke="none" fill="none" x="11221" y="12517" width="952" height="1248"/>
     <path fill="rgb(0,0,0)" stroke="none" d="M 12168,12733 C 12171,12736 12172,12740 12171,12745 12171,12749 12168,12753 12164,12756 12158,12760 12151,12760 12145,12755 12118,12745 11927,12745 11574,12753 11537,12907 11500,13074 11462,13255 11417,13473 11390,13622 11380,13704 11381,13704 11382,13704 11383,13705 11388,13706 11391,13708 11393,13713 11394,13717 11394,13721 11393,13725 11390,13734 11388,13741 11386,13745 11384,13749 11381,13753 11377,13758 11373,13762 11368,13764 11364,13764 11362,13764 11360,13764 11358,13763 11351,13761 11346,13755 11345,13745 11343,13736 11344,13723 11347,13706 11349,13683 11354,13648 11362,13604 11376,13519 11398,13408 11426,13273 11464,13089 11502,12916 11540,12753 11502,12754 11454,12755 11397,12757 11307,12759 11254,12760 11238,12760 11233,12760 11229,12759 11226,12755 11223,12752 11222,12749 11222,12744 11222,12741 11222,12739 11224,12736 11225,12733 11227,12731 11230,12730 11232,12729 11235,12728 11238,12728 11254,12728 11306,12726 11396,12724 11452,12723 11503,12721 11549,12720 11567,12646 11583,12582 11597,12530 11598,12526 11601,12522 11604,12520 11608,12518 11613,12517 11617,12518 11621,12519 11624,12522 11626,12526 11629,12530 11629,12534 11628,12539 11615,12589 11599,12649 11582,12719 11751,12715 11879,12713 11965,12714 12052,12715 12106,12717 12128,12720 12151,12722 12164,12727 12168,12733 Z"/>
    </g>
   </g>
   <g class="com.sun.star.drawing.ClosedBezierShape">
    <g id="id11">
     <rect class="BoundingBox" stroke="none" fill="none" x="11567" y="12931" width="257" height="316"/>
     <path fill="rgb(0,0,0)" stroke="none" d="M 11803,13039 C 11807,13038 11811,13038 11815,13041 11819,13043 11821,13046 11822,13051 11823,13055 11822,13060 11820,13064 11804,13088 11785,13114 11763,13141 11741,13168 11715,13192 11688,13214 11660,13235 11636,13246 11617,13246 11610,13246 11604,13245 11599,13243 11561,13226 11557,13160 11587,13043 11588,13039 11591,13035 11595,13033 11599,13031 11603,13030 11607,13031 11611,13032 11615,13035 11617,13039 11619,13043 11620,13047 11619,13051 11612,13078 11607,13102 11604,13123 11601,13143 11599,13159 11599,13170 11600,13180 11601,13189 11603,13196 11605,13203 11607,13208 11608,13209 11609,13211 11611,13212 11612,13212 11626,13218 11653,13204 11692,13168 11730,13132 11764,13092 11792,13046 11795,13042 11798,13040 11803,13039 Z M 11615,12972 C 11599,12972 11594,12966 11600,12953 11606,12943 11613,12936 11622,12933 11636,12928 11644,12932 11647,12944 11650,12955 11646,12964 11635,12969 11629,12971 11622,12972 11615,12972 Z"/>
    </g>
   </g>
   <g class="com.sun.star.drawing.ClosedBezierShape">
    <g id="id12">
     <rect class="BoundingBox" stroke="none" fill="none" x="11772" y="12989" width="326" height="232"/>
     <path fill="rgb(0,0,0)" stroke="none" d="M 12078,13045 C 12082,13045 12086,13046 12090,13049 12094,13051 12096,13055 12096,13060 12097,13064 12096,13068 12093,13071 12070,13101 12042,13125 12010,13142 11978,13159 11947,13164 11919,13158 11911,13177 11900,13192 11886,13203 11872,13214 11857,13220 11842,13220 L 11841,13220 C 11826,13220 11813,13215 11801,13205 11789,13195 11781,13181 11777,13164 11770,13136 11771,13109 11781,13084 11791,13059 11805,13040 11824,13028 11827,13025 11832,13025 11837,13027 11842,13014 11849,13004 11859,12998 11868,12991 11878,12988 11888,12990 11894,12991 11899,12994 11904,12997 11908,13001 11913,13007 11918,13015 11923,13023 11926,13035 11929,13051 11931,13068 11931,13087 11930,13110 11930,13115 11929,13121 11928,13127 11949,13131 11973,13126 11999,13111 12026,13095 12048,13075 12067,13051 12069,13048 12073,13046 12078,13045 Z M 11842,13187 C 11850,13187 11858,13183 11867,13176 11876,13169 11883,13159 11889,13146 11852,13126 11833,13098 11831,13063 11820,13074 11812,13088 11808,13106 11804,13124 11804,13140 11808,13154 11814,13176 11826,13187 11842,13187 Z M 11897,13108 C 11898,13094 11898,13083 11898,13073 11897,13063 11896,13055 11895,13049 11894,13042 11892,13037 11890,13033 11889,13029 11887,13027 11886,13025 11884,13023 11883,13022 11883,13022 L 11882,13022 C 11880,13022 11877,13024 11873,13028 11870,13031 11868,13036 11866,13043 11862,13055 11863,13067 11868,13079 11872,13092 11882,13103 11897,13113 11897,13111 11897,13110 11897,13108 Z"/>
    </g>
   </g>
   <g class="com.sun.star.drawing.ClosedBezierShape">
    <g id="id13">
     <rect class="BoundingBox" stroke="none" fill="none" x="12016" y="12961" width="389" height="321"/>
     <path fill="rgb(0,0,0)" stroke="none" d="M 12382,13042 C 12387,13041 12391,13042 12395,13044 12399,13046 12402,13050 12403,13054 12404,13058 12403,13063 12401,13066 12382,13100 12365,13127 12351,13147 12337,13167 12323,13182 12308,13194 12293,13205 12279,13210 12265,13208 12237,13205 12214,13174 12198,13117 12186,13078 12176,13058 12167,13058 12166,13057 12163,13058 12160,13060 12157,13062 12152,13067 12145,13075 12139,13084 12131,13095 12123,13109 12115,13123 12104,13144 12091,13172 12077,13200 12063,13232 12048,13270 12045,13277 12040,13280 12033,13281 12032,13280 12030,13280 12029,13280 12020,13277 12015,13271 12017,13262 12022,13215 12043,13129 12080,13003 12084,12990 12087,12980 12089,12973 12090,12969 12093,12965 12097,12963 12101,12961 12105,12961 12109,12962 12114,12963 12117,12966 12119,12970 12121,12974 12122,12978 12120,12983 12119,12986 12116,12996 12111,13012 12099,13056 12089,13090 12083,13114 12101,13080 12117,13057 12130,13044 12144,13031 12157,13025 12169,13025 12184,13025 12195,13032 12204,13047 12213,13062 12221,13083 12229,13108 12242,13152 12255,13174 12269,13176 12276,13177 12284,13173 12294,13165 12304,13156 12314,13143 12326,13126 12337,13110 12346,13096 12352,13087 12358,13077 12364,13065 12372,13050 12375,13046 12378,13043 12382,13042 Z"/>
    </g>
   </g>
  </g>
 </g>
</svg>